<?xml version="1.0" encoding="utf-8"?>
<!-- Generator: Adobe Illustrator 21.1.0, SVG Export Plug-In . SVG Version: 6.00 Build 0)  -->
<svg version="1.1" id="Icon_Set" xmlns="http://www.w3.org/2000/svg" xmlns:xlink="http://www.w3.org/1999/xlink" x="0px" y="0px"
	 viewBox="0 0 64 64" style="enable-background:new 0 0 64 64;" xml:space="preserve">
<style type="text/css">
	.st0{fill:#37474F;}
	.st1{fill:#FFB300;}
	.st2{fill:#90CAF9;}
	.st3{fill:#FFFFFF;}
	.st4{fill:#FF7043;}
	.st5{fill:#9CCC65;}
</style>
<g id="Connections">
	<g>
		<g>
			<g>
				<g>
					<g>
						<path class="st0" d="M8.505,55.5c-3.032,0-5.5-2.468-5.5-5.5s2.468-5.5,5.5-5.5s5.5,2.468,5.5,5.5S11.537,55.5,8.505,55.5z
							 M8.505,45.5c-2.481,0-4.5,2.019-4.5,4.5s2.019,4.5,4.5,4.5s4.5-2.019,4.5-4.5S10.986,45.5,8.505,45.5z"/>
					</g>
				</g>
				<g>
					<g>
						<path class="st1" d="M11.972,47.109l0.373-0.31C11.427,45.7,10.048,45,8.505,45c-2.761,0-5,2.239-5,5h0.472
							C6.898,50,9.726,48.977,11.972,47.109z"/>
					</g>
					<g>
						<path class="st0" d="M3.977,50.5H3.505c-0.276,0-0.5-0.224-0.5-0.5c0-3.032,2.468-5.5,5.5-5.5
							c1.634,0,3.173,0.721,4.224,1.979c0.085,0.102,0.126,0.233,0.114,0.365c-0.012,0.133-0.076,0.255-0.178,0.339l-0.373,0.311
							c0,0.001,0,0.001-0.001,0.001C9.962,49.433,7.009,50.5,3.977,50.5z M8.505,45.5c-2.312,0-4.223,1.753-4.473,4
							c2.766-0.013,5.455-0.987,7.586-2.747C10.783,45.951,9.674,45.5,8.505,45.5z"/>
					</g>
				</g>
			</g>
			<g>
				<g>
					<g>
						<path class="st0" d="M8.5,60.468c-0.181,0-0.348-0.098-0.437-0.255L5.56,55.75c-0.041-0.075-0.063-0.159-0.063-0.245
							l-0.001-1.203c0-0.179,0.096-0.345,0.251-0.434c0.156-0.088,0.348-0.089,0.501,0.002c1.424,0.831,3.065,0.838,4.497,0.009
							c0.155-0.089,0.344-0.09,0.501-0.001c0.154,0.09,0.25,0.255,0.25,0.434l0.001,1.184c0,0.085-0.021,0.169-0.063,0.244
							l-2.496,4.473C8.849,60.369,8.682,60.468,8.5,60.468C8.5,60.468,8.5,60.468,8.5,60.468z M6.496,55.374l2.003,3.57l1.997-3.579
							v-0.254c-1.29,0.519-2.714,0.515-4-0.006V55.374z"/>
					</g>
				</g>
				<g>
					<g>
						<path class="st0" d="M16.505,64c-0.276,0-0.5-0.224-0.5-0.5v-3.891c0-0.782-0.46-1.497-1.173-1.82l-3.624-1.648l-2.271,4.071
							c-0.136,0.24-0.442,0.324-0.681,0.192c-0.24-0.135-0.327-0.439-0.192-0.681l2.496-4.473c0.127-0.227,0.404-0.318,0.644-0.211
							l4.043,1.839c1.068,0.485,1.759,1.557,1.759,2.73V63.5C17.005,63.776,16.781,64,16.505,64z"/>
					</g>
				</g>
				<g>
					<g>
						<path class="st0" d="M0.5,64C0.224,64,0,63.776,0,63.5v-3.89c0-1.175,0.691-2.247,1.761-2.731l4.028-1.829
							c0.237-0.108,0.516-0.017,0.643,0.21l2.509,4.463c0.136,0.241,0.05,0.546-0.19,0.681c-0.24,0.137-0.546,0.05-0.681-0.19
							l-2.284-4.063l-3.611,1.64C1.461,58.112,1,58.827,1,59.61v3.89C1,63.776,0.776,64,0.5,64z"/>
					</g>
				</g>
				<g>
					<g>
						<path class="st0" d="M8.5,63.968c-0.276,0-0.5-0.224-0.5-0.5v-3.5c0-0.276,0.224-0.5,0.5-0.5s0.5,0.224,0.5,0.5v3.5
							C9,63.744,8.776,63.968,8.5,63.968z"/>
					</g>
				</g>
			</g>
		</g>
		<g>
			<g>
				<g>
					<g>
						<path class="st0" d="M55.5,55.5c-3.032,0-5.5-2.468-5.5-5.5s2.468-5.5,5.5-5.5S61,46.968,61,50S58.532,55.5,55.5,55.5z
							 M55.5,45.5c-2.481,0-4.5,2.019-4.5,4.5s2.019,4.5,4.5,4.5S60,52.481,60,50S57.981,45.5,55.5,45.5z"/>
					</g>
				</g>
				<g>
					<g>
						<path class="st1" d="M58.967,47.109l0.373-0.31C58.422,45.7,57.043,45,55.5,45c-2.761,0-5,2.239-5,5h0.472
							C53.893,50,56.722,48.977,58.967,47.109z"/>
					</g>
					<g>
						<path class="st0" d="M50.972,50.5H50.5c-0.276,0-0.5-0.224-0.5-0.5c0-3.032,2.468-5.5,5.5-5.5
							c1.634,0,3.173,0.721,4.224,1.979c0.085,0.102,0.126,0.233,0.114,0.365c-0.012,0.133-0.076,0.255-0.178,0.339l-0.373,0.311
							c0,0.001,0,0.001-0.001,0.001C56.957,49.433,54.004,50.5,50.972,50.5z M55.5,45.5c-2.313,0-4.223,1.753-4.473,4
							c2.766-0.013,5.455-0.987,7.586-2.747C57.778,45.951,56.669,45.5,55.5,45.5z"/>
					</g>
				</g>
			</g>
			<g>
				<g>
					<g>
						<path class="st0" d="M55.495,60.468c-0.181,0-0.348-0.098-0.437-0.255l-2.504-4.463c-0.041-0.075-0.063-0.159-0.063-0.245
							l-0.001-1.203c0-0.179,0.096-0.345,0.251-0.434c0.156-0.088,0.349-0.089,0.501,0.002c1.424,0.831,3.065,0.838,4.497,0.009
							c0.155-0.089,0.344-0.09,0.501-0.001c0.154,0.09,0.25,0.255,0.25,0.434l0.001,1.184c0,0.085-0.021,0.169-0.063,0.244
							l-2.496,4.473C55.844,60.369,55.677,60.468,55.495,60.468C55.495,60.468,55.495,60.468,55.495,60.468z M53.491,55.374
							l2.003,3.569l1.997-3.578v-0.254c-1.289,0.519-2.713,0.515-4-0.006V55.374z"/>
					</g>
				</g>
				<g>
					<g>
						<path class="st0" d="M63.5,64c-0.276,0-0.5-0.224-0.5-0.5v-3.891c0-0.782-0.46-1.497-1.173-1.82l-4.043-1.839
							c-0.251-0.114-0.362-0.411-0.248-0.662c0.115-0.252,0.412-0.36,0.662-0.248l4.043,1.839C63.31,57.364,64,58.436,64,59.609
							V63.5C64,63.776,63.776,64,63.5,64z"/>
					</g>
				</g>
				<g>
					<g>
						<path class="st0" d="M47.495,64c-0.276,0-0.5-0.224-0.5-0.5v-3.89c0-1.175,0.691-2.247,1.761-2.731l4.028-1.829
							c0.252-0.112,0.548-0.003,0.662,0.248c0.114,0.252,0.003,0.548-0.248,0.662l-4.029,1.829
							c-0.713,0.323-1.174,1.038-1.174,1.821v3.89C47.995,63.776,47.771,64,47.495,64z"/>
					</g>
				</g>
				<g>
					<g>
						<path class="st0" d="M55.495,63.968c-0.276,0-0.5-0.224-0.5-0.5v-3.5c0-0.276,0.224-0.5,0.5-0.5s0.5,0.224,0.5,0.5v3.5
							C55.995,63.744,55.771,63.968,55.495,63.968z"/>
					</g>
				</g>
			</g>
		</g>
		<g>
			<g>
				<g>
					<g>
						<path class="st0" d="M8.505,11c-3.032,0-5.5-2.468-5.5-5.5S5.473,0,8.505,0s5.5,2.468,5.5,5.5S11.537,11,8.505,11z M8.505,1
							c-2.481,0-4.5,2.019-4.5,4.5s2.019,4.5,4.5,4.5s4.5-2.019,4.5-4.5S10.986,1,8.505,1z"/>
					</g>
				</g>
				<g>
					<g>
						<path class="st1" d="M11.972,2.609l0.373-0.31C11.427,1.2,10.048,0.5,8.505,0.5c-2.761,0-5,2.239-5,5h0.472
							C6.898,5.5,9.726,4.477,11.972,2.609z"/>
					</g>
					<g>
						<path class="st0" d="M3.977,6H3.505c-0.276,0-0.5-0.224-0.5-0.5c0-3.032,2.468-5.5,5.5-5.5c1.634,0,3.173,0.721,4.224,1.979
							c0.085,0.102,0.126,0.233,0.114,0.365c-0.012,0.133-0.076,0.255-0.178,0.339l-0.373,0.311c0,0.001,0,0.001-0.001,0.001
							C9.962,4.933,7.009,6,3.977,6z M8.505,1C6.192,1,4.282,2.753,4.032,5c2.766-0.013,5.455-0.987,7.586-2.747
							C10.783,1.451,9.674,1,8.505,1z"/>
					</g>
				</g>
			</g>
			<g>
				<g>
					<g>
						<path class="st0" d="M8.5,15.968c-0.181,0-0.348-0.098-0.437-0.255L5.56,11.25c-0.041-0.075-0.063-0.159-0.063-0.245
							L5.495,9.802c0-0.179,0.096-0.345,0.251-0.434C5.902,9.281,6.094,9.279,6.247,9.37c1.424,0.831,3.065,0.838,4.497,0.009
							c0.155-0.089,0.344-0.09,0.501-0.001c0.154,0.09,0.25,0.255,0.25,0.434l0.001,1.184c0,0.085-0.021,0.169-0.063,0.244
							l-2.496,4.473C8.849,15.869,8.682,15.968,8.5,15.968C8.5,15.968,8.5,15.968,8.5,15.968z M6.496,10.874l2.003,3.57l1.997-3.579
							v-0.254c-1.29,0.519-2.714,0.515-4-0.006V10.874z"/>
					</g>
				</g>
				<g>
					<g>
						<path class="st0" d="M16.505,19.5c-0.276,0-0.5-0.224-0.5-0.5v-3.891c0-0.782-0.46-1.497-1.173-1.82l-4.043-1.839
							c-0.251-0.114-0.362-0.411-0.248-0.662c0.115-0.252,0.411-0.36,0.662-0.248l4.043,1.839c1.068,0.485,1.759,1.557,1.759,2.73
							V19C17.005,19.276,16.781,19.5,16.505,19.5z"/>
					</g>
				</g>
				<g>
					<g>
						<path class="st0" d="M0.5,19.5C0.224,19.5,0,19.276,0,19v-3.89c0-1.175,0.691-2.247,1.761-2.731l4.028-1.829
							c0.252-0.111,0.548-0.003,0.662,0.248c0.114,0.252,0.003,0.548-0.248,0.662l-4.029,1.829C1.461,13.612,1,14.327,1,15.11V19
							C1,19.276,0.776,19.5,0.5,19.5z"/>
					</g>
				</g>
				<g>
					<g>
						<path class="st0" d="M8.5,19.468c-0.276,0-0.5-0.224-0.5-0.5v-3.5c0-0.276,0.224-0.5,0.5-0.5s0.5,0.224,0.5,0.5v3.5
							C9,19.244,8.776,19.468,8.5,19.468z"/>
					</g>
				</g>
			</g>
		</g>
		<g>
			<g>
				<g>
					<g>
						<path class="st0" d="M55.5,11C52.468,11,50,8.532,50,5.5S52.468,0,55.5,0S61,2.468,61,5.5S58.532,11,55.5,11z M55.5,1
							C53.019,1,51,3.019,51,5.5s2.019,4.5,4.5,4.5S60,7.981,60,5.5S57.981,1,55.5,1z"/>
					</g>
				</g>
				<g>
					<g>
						<path class="st1" d="M58.967,2.609l0.373-0.31C58.422,1.2,57.043,0.5,55.5,0.5c-2.761,0-5,2.239-5,5h0.472
							C53.893,5.5,56.722,4.477,58.967,2.609z"/>
					</g>
					<g>
						<path class="st0" d="M50.972,6H50.5C50.224,6,50,5.776,50,5.5C50,2.468,52.468,0,55.5,0c1.634,0,3.173,0.721,4.224,1.979
							c0.085,0.102,0.126,0.233,0.114,0.365c-0.012,0.133-0.076,0.255-0.178,0.339l-0.373,0.311c0,0.001,0,0.001-0.001,0.001
							C56.957,4.933,54.004,6,50.972,6z M55.5,1c-2.313,0-4.223,1.753-4.473,4c2.766-0.013,5.455-0.987,7.586-2.747
							C57.778,1.451,56.669,1,55.5,1z"/>
					</g>
				</g>
			</g>
			<g>
				<g>
					<g>
						<path class="st0" d="M55.495,15.968c-0.181,0-0.348-0.098-0.437-0.255l-2.504-4.463c-0.041-0.075-0.063-0.159-0.063-0.245
							L52.49,9.802c0-0.179,0.096-0.345,0.251-0.434c0.156-0.087,0.349-0.089,0.501,0.002c1.424,0.831,3.065,0.838,4.497,0.009
							c0.155-0.089,0.344-0.09,0.501-0.001c0.154,0.09,0.25,0.255,0.25,0.434l0.001,1.184c0,0.085-0.021,0.169-0.063,0.244
							l-2.496,4.473C55.844,15.869,55.677,15.968,55.495,15.968C55.495,15.968,55.495,15.968,55.495,15.968z M53.491,10.874
							l2.003,3.569l1.997-3.578v-0.254c-1.289,0.519-2.713,0.515-4-0.006V10.874z"/>
					</g>
				</g>
				<g>
					<g>
						<path class="st0" d="M63.5,19.5c-0.276,0-0.5-0.224-0.5-0.5v-3.891c0-0.782-0.46-1.497-1.173-1.82l-4.043-1.839
							c-0.251-0.114-0.362-0.411-0.248-0.662c0.115-0.252,0.412-0.36,0.662-0.248l4.043,1.839C63.31,12.864,64,13.936,64,15.109V19
							C64,19.276,63.776,19.5,63.5,19.5z"/>
					</g>
				</g>
				<g>
					<g>
						<path class="st0" d="M47.495,19.5c-0.276,0-0.5-0.224-0.5-0.5v-3.89c0-1.175,0.691-2.247,1.761-2.731l4.028-1.829
							c0.252-0.111,0.548-0.003,0.662,0.248c0.114,0.252,0.003,0.548-0.248,0.662l-4.029,1.829
							c-0.713,0.323-1.174,1.038-1.174,1.821V19C47.995,19.276,47.771,19.5,47.495,19.5z"/>
					</g>
				</g>
				<g>
					<g>
						<path class="st0" d="M55.495,19.468c-0.276,0-0.5-0.224-0.5-0.5v-3.5c0-0.276,0.224-0.5,0.5-0.5s0.5,0.224,0.5,0.5v3.5
							C55.995,19.244,55.771,19.468,55.495,19.468z"/>
					</g>
				</g>
			</g>
		</g>
		<g>
			<g>
				<g>
					<path class="st0" d="M33,14.5h-5c-0.276,0-0.5-0.224-0.5-0.5s0.224-0.5,0.5-0.5h5c0.276,0,0.5,0.224,0.5,0.5
						S33.276,14.5,33,14.5z"/>
				</g>
			</g>
			<g>
				<g>
					<path class="st0" d="M36,14.5h-1c-0.276,0-0.5-0.224-0.5-0.5s0.224-0.5,0.5-0.5h1c0.276,0,0.5,0.224,0.5,0.5
						S36.276,14.5,36,14.5z"/>
				</g>
			</g>
		</g>
		<g>
			<g>
				<g>
					<path class="st0" d="M36,56.5h-5c-0.276,0-0.5-0.224-0.5-0.5s0.224-0.5,0.5-0.5h5c0.276,0,0.5,0.224,0.5,0.5
						S36.276,56.5,36,56.5z"/>
				</g>
			</g>
			<g>
				<g>
					<path class="st0" d="M29,56.5h-1c-0.276,0-0.5-0.224-0.5-0.5s0.224-0.5,0.5-0.5h1c0.276,0,0.5,0.224,0.5,0.5
						S29.276,56.5,29,56.5z"/>
				</g>
			</g>
		</g>
		<g>
			<g>
				<g>
					<path class="st0" d="M45,49.5c-0.128,0-0.256-0.049-0.354-0.146l-3.809-3.809c-0.195-0.195-0.195-0.512,0-0.707
						s0.512-0.195,0.707,0l3.809,3.809c0.195,0.195,0.195,0.512,0,0.707C45.256,49.451,45.128,49.5,45,49.5z"/>
				</g>
			</g>
			<g>
				<g>
					<path class="st0" d="M22.809,27.309c-0.128,0-0.256-0.049-0.354-0.146l-3.809-3.809c-0.195-0.195-0.195-0.512,0-0.707
						s0.512-0.195,0.707,0l3.809,3.809c0.195,0.195,0.195,0.512,0,0.707C23.064,27.26,22.937,27.309,22.809,27.309z"/>
				</g>
			</g>
			<g>
				<g>
					<path class="st0" d="M19,49.5c-0.128,0-0.256-0.049-0.354-0.146c-0.195-0.195-0.195-0.512,0-0.707l3.808-3.808
						c0.195-0.195,0.512-0.195,0.707,0s0.195,0.512,0,0.707l-3.808,3.808C19.256,49.451,19.128,49.5,19,49.5z"/>
				</g>
			</g>
			<g>
				<g>
					<path class="st0" d="M41.192,27.308c-0.128,0-0.256-0.049-0.354-0.146c-0.195-0.195-0.195-0.512,0-0.707l3.808-3.808
						c0.195-0.195,0.512-0.195,0.707,0s0.195,0.512,0,0.707l-3.808,3.808C41.448,27.259,41.32,27.308,41.192,27.308z"/>
				</g>
			</g>
		</g>
		<g>
			<g>
				<circle class="st2" cx="32" cy="36" r="13"/>
			</g>
			<g>
				<path class="st0" d="M32,49.5c-7.444,0-13.5-6.056-13.5-13.5S24.556,22.5,32,22.5S45.5,28.556,45.5,36S39.444,49.5,32,49.5z
					 M32,23.5c-6.893,0-12.5,5.607-12.5,12.5S25.107,48.5,32,48.5S44.5,42.893,44.5,36S38.893,23.5,32,23.5z"/>
			</g>
		</g>
		<g>
			<g>
				<g>
					<g>
						<circle class="st3" cx="32.002" cy="31.75" r="5"/>
					</g>
					<g>
						<path class="st0" d="M32.002,37.25c-3.032,0-5.5-2.468-5.5-5.5s2.468-5.5,5.5-5.5s5.5,2.468,5.5,5.5
							S35.034,37.25,32.002,37.25z M32.002,27.25c-2.481,0-4.5,2.019-4.5,4.5s2.019,4.5,4.5,4.5s4.5-2.019,4.5-4.5
							S34.483,27.25,32.002,27.25z"/>
					</g>
				</g>
				<g>
					<g>
						<path class="st1" d="M35.469,28.859l0.373-0.31c-0.917-1.099-2.296-1.799-3.84-1.799c-2.761,0-5,2.239-5,5h0.472
							C30.395,31.75,33.224,30.727,35.469,28.859z"/>
					</g>
					<g>
						<path class="st0" d="M27.475,32.25h-0.473c-0.276,0-0.5-0.224-0.5-0.5c0-3.032,2.468-5.5,5.5-5.5
							c1.635,0,3.174,0.721,4.224,1.979c0.085,0.102,0.126,0.233,0.114,0.365s-0.076,0.254-0.178,0.339l-0.372,0.311
							c0,0,0,0-0.001,0.001C33.459,31.183,30.506,32.25,27.475,32.25z M32.002,27.25c-2.312,0-4.223,1.753-4.473,4
							c2.765-0.013,5.455-0.987,7.587-2.747C34.281,27.701,33.172,27.25,32.002,27.25z M35.47,28.859h0.01H35.47z"/>
					</g>
				</g>
			</g>
			<g>
				<g>
					<g>
						<path class="st3" d="M29.494,37.255l-4.03,1.829c-0.893,0.405-1.467,1.296-1.467,2.276v1.898l16.005,0V41.36
							c0-0.98-0.573-1.87-1.465-2.276l-4.043-1.838"/>
					</g>
					<g>
						<path class="st0" d="M40.002,43.759H23.998c-0.276,0-0.5-0.224-0.5-0.5V41.36c0-1.174,0.69-2.246,1.759-2.731l4.03-1.829
							c0.252-0.112,0.549-0.002,0.662,0.248c0.114,0.252,0.003,0.548-0.248,0.662l-4.03,1.829c-0.713,0.323-1.173,1.038-1.173,1.821
							v1.398h15.004v-1.399c0-0.782-0.46-1.497-1.172-1.82L34.286,37.7c-0.251-0.114-0.362-0.411-0.248-0.662
							c0.114-0.252,0.411-0.36,0.662-0.248l4.044,1.839c1.067,0.484,1.758,1.557,1.758,2.73v1.899
							C40.502,43.535,40.278,43.759,40.002,43.759z"/>
					</g>
				</g>
				<g>
					<g>
						<path class="st3" d="M32.002,36.75c-0.919,0-1.769-0.266-2.509-0.698l0.001,1.204l2.504,4.463l2.496-4.473l-0.001-1.184
							C33.757,36.488,32.914,36.75,32.002,36.75z"/>
					</g>
					<g>
						<path class="st0" d="M31.998,42.218c-0.181,0-0.348-0.098-0.437-0.255L29.058,37.5c-0.041-0.075-0.063-0.159-0.063-0.245
							l-0.001-1.203c0-0.179,0.096-0.345,0.251-0.434c0.156-0.088,0.349-0.089,0.501,0.002c1.424,0.832,3.064,0.837,4.498,0.009
							c0.153-0.09,0.345-0.089,0.5-0.001c0.154,0.09,0.25,0.255,0.25,0.434l0.001,1.184c0,0.085-0.021,0.169-0.063,0.244
							l-2.496,4.473C32.347,42.119,32.18,42.218,31.998,42.218C31.998,42.218,31.998,42.218,31.998,42.218z M29.994,37.124
							l2.003,3.57l1.997-3.579V36.86c-1.291,0.521-2.716,0.516-4-0.005V37.124z"/>
					</g>
				</g>
				<g>
					<g>
						<path class="st0" d="M31.998,43.759c-0.276,0-0.5-0.224-0.5-0.5v-1.541c0-0.276,0.224-0.5,0.5-0.5s0.5,0.224,0.5,0.5v1.541
							C32.498,43.535,32.274,43.759,31.998,43.759z"/>
					</g>
				</g>
			</g>
		</g>
	</g>
</g>
</svg>
