<svg width="48" height="48" viewBox="0 0 48 48" fill="none" xmlns="http://www.w3.org/2000/svg">
<g filter="url(#filter0_d_735_8666)">
<rect x="8" y="8" width="32" height="32" rx="16" fill="black"/>
<path d="M31.5 20.25L29.625 19.1562M31.5 20.25V22.125M31.5 20.25L29.625 21.3438M16.5 20.25L18.375 19.1562M16.5 20.25L18.375 21.3438M16.5 20.25V22.125M24 24.625L25.875 23.5312M24 24.625L22.125 23.5312M24 24.625V26.5M24 32.125L25.875 31.0312M24 32.125V30.25M24 32.125L22.125 31.0312M22.125 16.9688L24 15.875L25.875 16.9688M31.5 25.875V27.75L29.625 28.8438M18.375 28.8438L16.5 27.75V25.875" stroke="white" stroke-width="1.5" stroke-linecap="round" stroke-linejoin="round"/>
</g>
<defs>
<filter id="filter0_d_735_8666" x="0" y="0" width="48" height="48" filterUnits="userSpaceOnUse" color-interpolation-filters="sRGB">
<feFlood flood-opacity="0" result="BackgroundImageFix"/>
<feColorMatrix in="SourceAlpha" type="matrix" values="0 0 0 0 0 0 0 0 0 0 0 0 0 0 0 0 0 0 127 0" result="hardAlpha"/>
<feMorphology radius="8" operator="dilate" in="SourceAlpha" result="effect1_dropShadow_735_8666"/>
<feOffset/>
<feColorMatrix type="matrix" values="0 0 0 0 0.984314 0 0 0 0 0.854902 0 0 0 0 0.0196078 0 0 0 1 0"/>
<feBlend mode="normal" in2="BackgroundImageFix" result="effect1_dropShadow_735_8666"/>
<feBlend mode="normal" in="SourceGraphic" in2="effect1_dropShadow_735_8666" result="shape"/>
</filter>
</defs>
</svg>
